# xmcd
#
# Track frame offsets:
#	150
#	18106
#	35225
#	51820
#	70588
#	84111
#	97600
#	113202
#	124337
#	139793
#	160292
#	174167
#
# Disc length: 2448 seconds
#
# Revision: 1
# Processed by: cddbd v1.5.2PL0 Copyright (c) Steve Scherf et al.
# Submitted via: audiograbber 1.83.01
#
DISCID=8d098e0c
DTITLE=Billy Cross - The dream hasn't changed
DYEAR=1900
DGENRE=
TTITLE0=No one here gets out of this alive
TTITLE1=The same old you and the same old me
TTITLE2=Gonna get along just fine
TTITLE3=Suzie's such a bad girl
TTITLE4=Bring my baby back to me
TTITLE5=Denmark rocks
TTITLE6=I'm on your side
TTITLE7=I've just run out of rage
TTITLE8=I think i'm going out of my mind
TTITLE9=Stay happy but please stay away
TTITLE10=The dream hasn't changed
TTITLE11=No parking
EXTD=
EXTT0=
EXTT1=
EXTT2=
EXTT3=
EXTT4=
EXTT5=
EXTT6=
EXTT7=
EXTT8=
EXTT9=
EXTT10=
EXTT11=
PLAYORDER=
